<svg width="42" height="41" viewBox="0 0 42 41" fill="none" xmlns="http://www.w3.org/2000/svg">
<path d="M34.3407 27.4885V32.5153C34.3407 32.9597 34.1642 33.3859 33.8499 33.7001C33.5357 34.0144 33.1095 34.1909 32.6651 34.1909H7.53107C7.08667 34.1909 6.66048 34.0144 6.34624 33.7001C6.032 33.3859 5.85547 32.9597 5.85547 32.5153V10.7325C5.85547 10.2881 6.032 9.86189 6.34624 9.54766C6.66048 9.23342 7.08667 9.05688 7.53107 9.05688H15.9091" stroke="#8300EB" stroke-width="2.29797" stroke-linecap="round" stroke-linejoin="round"/>
<path d="M36.0154 25.8122V9.05622C36.0154 8.61182 35.8389 8.18562 35.5247 7.87139C35.2104 7.55715 34.7842 7.38062 34.3398 7.38062H17.5838C17.1394 7.38062 16.7132 7.55715 16.399 7.87139C16.0847 8.18562 15.9082 8.61182 15.9082 9.05622V25.8122C15.9082 26.2566 16.0847 26.6828 16.399 26.9971C16.7132 27.3113 17.1394 27.4878 17.5838 27.4878H34.3398C34.7842 27.4878 35.2104 27.3113 35.5247 26.9971C35.8389 26.6828 36.0154 26.2566 36.0154 25.8122ZM25.9618 14.083C25.299 14.083 24.6511 14.2796 24.1 14.6478C23.5489 15.016 23.1194 15.5394 22.8657 16.1518C22.6121 16.7641 22.5457 17.4379 22.675 18.088C22.8043 18.7381 23.1235 19.3352 23.5922 19.8039C24.0608 20.2726 24.658 20.5917 25.308 20.721C25.9581 20.8503 26.6319 20.784 27.2443 20.5303C27.8566 20.2767 28.38 19.8472 28.7482 19.2961C29.1165 18.745 29.313 18.097 29.313 17.4342C29.313 16.5454 28.9599 15.693 28.3315 15.0646C27.703 14.4361 26.8506 14.083 25.9618 14.083Z" stroke="#8300EB" stroke-width="2.29797" stroke-linecap="round" stroke-linejoin="round"/>
</svg>
