<svg width="36" height="36" viewBox="0 0 36 36" fill="none" xmlns="http://www.w3.org/2000/svg">
<path d="M7.48307 26.8735L7.48307 22.4985M13.3164 26.8735L13.3164 22.4985M30.8164 13.7485L22.0664 13.7485M4.56641 21.0402L4.56641 10.8319C4.56641 10.4451 4.72005 10.0742 4.99354 9.80067C5.26703 9.52718 5.63796 9.37353 6.02474 9.37353L19.1497 9.37353C19.9233 9.37353 20.6652 9.68083 21.2121 10.2278C21.7591 10.7748 22.0664 11.5167 22.0664 12.2902L22.0664 21.0402C22.0664 21.427 21.9128 21.7979 21.6393 22.0714C21.3658 22.3449 20.9948 22.4985 20.6081 22.4985L6.02474 22.4985C5.63797 22.4985 5.26703 22.3449 4.99354 22.0714C4.72005 21.7979 4.56641 21.427 4.56641 21.0402Z" stroke="#8300EB" stroke-width="2" stroke-linecap="round" stroke-linejoin="round"/>
</svg>
