<svg width="36" height="36" viewBox="0 0 36 36" fill="none" xmlns="http://www.w3.org/2000/svg">
<path d="M28.4691 17.6918C28.4691 19.9993 27.7848 22.2549 26.5029 24.1735C25.2209 26.092 23.3989 27.5874 21.2671 28.4704C19.1352 29.3534 16.7895 29.5845 14.5264 29.1343C12.2632 28.6841 10.1844 27.573 8.55284 25.9414C6.92122 24.3098 5.81008 22.231 5.35992 19.9679C4.90976 17.7048 5.1408 15.359 6.02382 13.2272C6.90684 11.0954 8.40219 9.27328 10.3208 7.99133C12.2393 6.70938 14.495 6.02515 16.8024 6.02515C19.8966 6.02515 22.8641 7.25431 25.052 9.44223C27.2399 11.6302 28.4691 14.5976 28.4691 17.6918ZM22.6357 17.6918C22.6357 16.5381 22.2936 15.4103 21.6527 14.451C21.0117 13.4917 20.1006 12.744 19.0347 12.3025C17.9688 11.861 16.7959 11.7455 15.6644 11.9706C14.5328 12.1956 13.4934 12.7512 12.6776 13.567C11.8618 14.3828 11.3062 15.4222 11.0812 16.5538C10.8561 17.6853 10.9716 18.8582 11.4131 19.9241C11.8546 20.99 12.6023 21.9011 13.5616 22.5421C14.5209 23.183 15.6487 23.5251 16.8024 23.5251C18.3495 23.5251 19.8332 22.9106 20.9272 21.8166C22.0212 20.7226 22.6357 19.2389 22.6357 17.6918ZM26.8941 23.5251C25.8711 25.2969 24.4002 26.7686 22.629 27.7925C20.8577 28.8163 18.8483 29.3564 16.8024 29.3585H29.9274C30.3142 29.3585 30.6851 29.2048 30.9586 28.9313C31.2321 28.6579 31.3857 28.2869 31.3857 27.9001V24.9835C31.3857 24.5967 31.2321 24.2258 30.9586 23.9523C30.6851 23.6788 30.3142 23.5251 29.9274 23.5251H26.8941Z" stroke="#8300EB" stroke-width="2" stroke-linecap="round" stroke-linejoin="round"/>
</svg>
