<svg width="35" height="36" viewBox="0 0 35 36" fill="none" xmlns="http://www.w3.org/2000/svg">
<path d="M24.7936 31.248L22.2561 22.498M10.2103 31.248L12.7478 22.498M17.502 6.45638V4.99805M17.502 23.9564C15.7714 23.9564 14.0796 23.4432 12.6407 22.4817C11.2018 21.5203 10.0803 20.1537 9.41801 18.5549C8.75574 16.956 8.58247 15.1967 8.92009 13.4993C9.25771 11.802 10.0911 10.2429 11.3148 9.0192C12.5385 7.79549 14.0976 6.96213 15.7949 6.62451C17.4923 6.28689 19.2516 6.46017 20.8504 7.12243C22.4493 7.7847 23.8159 8.90621 24.7773 10.3451C25.7388 11.7841 26.252 13.4758 26.252 15.2064C26.252 17.527 25.3301 19.7526 23.6891 21.3936C22.0482 23.0345 19.8226 23.9564 17.502 23.9564ZM20.4186 15.2064C20.4186 14.6295 20.2476 14.0656 19.9271 13.586C19.6066 13.1063 19.1511 12.7325 18.6181 12.5117C18.0852 12.291 17.4987 12.2332 16.9329 12.3458C16.3672 12.4583 15.8475 12.7361 15.4396 13.144C15.0317 13.5519 14.7539 14.0716 14.6413 14.6374C14.5288 15.2031 14.5866 15.7896 14.8073 16.3225C15.0281 16.8555 15.4019 17.311 15.8815 17.6315C16.3612 17.952 16.9251 18.123 17.502 18.123C18.2755 18.123 19.0174 17.8158 19.5644 17.2688C20.1113 16.7218 20.4186 15.9799 20.4186 15.2064Z" stroke="#8300EB" stroke-width="2" stroke-linecap="round" stroke-linejoin="round"/>
</svg>
