<svg width="36" height="36" viewBox="0 0 36 36" fill="none" xmlns="http://www.w3.org/2000/svg">
<path d="M29.4753 24.9835H6.14193C5.75515 24.9835 5.38422 24.8298 5.11073 24.5563C4.83724 24.2829 4.68359 23.9119 4.68359 23.5251V11.8585C4.68359 11.4717 4.83724 11.1008 5.11073 10.8273C5.38422 10.5538 5.75515 10.4001 6.14193 10.4001H29.4753C29.862 10.4001 30.233 10.5538 30.5065 10.8273C30.78 11.1008 30.9336 11.4717 30.9336 11.8585V23.5251C30.9336 23.9119 30.78 24.2829 30.5065 24.5563C30.233 24.8298 29.862 24.9835 29.4753 24.9835ZM25.1003 20.6085C25.1003 20.2217 24.9466 19.8508 24.6731 19.5773C24.3996 19.3038 24.0287 19.1501 23.6419 19.1501H11.9753C11.5885 19.1501 11.2176 19.3038 10.9441 19.5773C10.6706 19.8508 10.5169 20.2217 10.5169 20.6085V24.9835H25.1003V20.6085Z" stroke="#8300EB" stroke-width="2" stroke-linecap="round" stroke-linejoin="round"/>
</svg>
