<svg width="35" height="36" viewBox="0 0 35 36" fill="none" xmlns="http://www.w3.org/2000/svg">
<path d="M26.2471 31.248L25.27 25.4147L25.0221 23.9564M22.1054 6.45638L21.8721 4.99805M9.97207 23.9564L9.72415 25.4147L8.74707 31.248M13.1221 4.99805L12.8742 6.45638M17.4971 25.4147V29.7897M29.1637 23.9564H5.8304C5.44363 23.9564 5.0727 23.8027 4.79921 23.5292C4.52572 23.2558 4.37207 22.8848 4.37207 22.498V7.91471C4.37207 7.52794 4.52572 7.15701 4.79921 6.88352C5.0727 6.61003 5.44363 6.45638 5.8304 6.45638H29.1637C29.5505 6.45638 29.9214 6.61003 30.1949 6.88352C30.4684 7.15701 30.6221 7.52794 30.6221 7.91471V22.498C30.6221 22.8848 30.4684 23.2558 30.1949 23.5292C29.9214 23.8027 29.5505 23.9564 29.1637 23.9564Z" stroke="#8300EB" stroke-width="2" stroke-linecap="round" stroke-linejoin="round"/>
</svg>
