<svg width="31" height="31" viewBox="0 0 31 31" fill="none" xmlns="http://www.w3.org/2000/svg">
<path d="M9.20238 6.7204V2.99663C9.20238 2.31111 9.75812 1.75537 10.4436 1.75537H20.3737C21.0592 1.75537 21.615 2.31111 21.615 2.99663V6.7204H26.58C27.2655 6.7204 27.8212 7.27614 27.8212 7.96166V25.3393C27.8212 26.0248 27.2655 26.5805 26.58 26.5805H4.23735C3.55183 26.5805 2.99609 26.0248 2.99609 25.3393V7.96166C2.99609 7.27614 3.55183 6.7204 4.23735 6.7204H9.20238ZM20.3737 19.133H16.6499V20.3742H14.1674V19.133H10.4436V24.098H20.3737V19.133ZM10.4436 9.20292V16.6505H14.1674V15.4092H16.6499V16.6505H20.3737V9.20292H10.4436ZM7.96112 16.6505V9.20292H5.47861V16.6505H7.96112ZM22.8562 16.6505H25.3387V9.20292H22.8562V16.6505ZM7.96112 19.133H5.47861V24.098H7.96112V19.133ZM22.8562 19.133V24.098H25.3387V19.133H22.8562ZM11.6849 4.23789V6.7204H19.1324V4.23789H11.6849Z" fill="#8300EB"/>
</svg>
