<svg width="35" height="35" viewBox="0 0 35 35" fill="none" xmlns="http://www.w3.org/2000/svg">
<path d="M14.583 20.4167V4.375C18.8304 4.39798 22.8974 6.09546 25.9008 9.09889C28.9042 12.1023 30.6017 16.1692 30.6247 20.4167C30.6231 24.1753 29.3018 27.814 26.8913 30.6979L14.583 20.4167Z" stroke="#652D90" stroke-width="2" stroke-linecap="round" stroke-linejoin="round"/>
<path d="M22.648 27.1541C21.4846 28.4405 20.0203 29.4182 18.3863 29.9997C16.7522 30.5811 14.9995 30.7481 13.285 30.4857C11.5705 30.2234 9.94794 29.5398 8.56256 28.4963C7.17718 27.4528 6.07229 26.0819 5.34689 24.5064C4.62148 22.931 4.2982 21.2002 4.40602 19.4692C4.51384 17.7381 5.04939 16.0608 5.96469 14.5876C6.87999 13.1143 8.14645 11.8911 9.65061 11.0276C11.1548 10.1641 12.8497 9.68712 14.5834 9.63953" stroke="#652D90" stroke-width="2" stroke-linecap="round" stroke-linejoin="round"/>
</svg>
