<svg width="31" height="30" viewBox="0 0 31 30" fill="none" xmlns="http://www.w3.org/2000/svg">
<path d="M9.84208 25.8835L3.38574 27.3182L4.82048 20.8619C3.90487 19.1497 3.38574 17.1936 3.38574 15.1162C3.38574 8.37712 8.8488 2.91406 15.5878 2.91406C22.3268 2.91406 27.7899 8.37712 27.7899 15.1162C27.7899 21.8551 22.3268 27.3182 15.5878 27.3182C13.5104 27.3182 11.5543 26.7992 9.84208 25.8835ZM10.1954 23.305L10.9929 23.7314C12.3939 24.4806 13.9595 24.8778 15.5878 24.8778C20.9791 24.8778 25.3495 20.5074 25.3495 15.1162C25.3495 9.72493 20.9791 5.35448 15.5878 5.35448C10.1966 5.35448 5.82616 9.72493 5.82616 15.1162C5.82616 16.7445 6.22333 18.3101 6.97253 19.7111L7.39896 20.5085L6.59997 24.104L10.1954 23.305ZM9.48679 15.1162H11.9272C11.9272 17.1379 13.5661 18.7768 15.5878 18.7768C17.6096 18.7768 19.2485 17.1379 19.2485 15.1162H21.6889C21.6889 18.4856 18.9573 21.2172 15.5878 21.2172C12.2183 21.2172 9.48679 18.4856 9.48679 15.1162Z" fill="#8300EB"/>
</svg>
