<svg width="35" height="35" viewBox="0 0 35 35" fill="none" xmlns="http://www.w3.org/2000/svg">
<path d="M13.1253 6.2915H8.75033C8.36355 6.2915 7.99262 6.44515 7.71913 6.71864C7.44564 6.99213 7.29199 7.36306 7.29199 7.74984V28.1665C7.29199 28.5533 7.44564 28.9242 7.71913 29.1977C7.99262 29.4712 8.36355 29.6248 8.75033 29.6248H26.2503C26.6371 29.6248 27.008 29.4712 27.2815 29.1977C27.555 28.9242 27.7087 28.5533 27.7087 28.1665V7.74984C27.7087 7.36306 27.555 6.99213 27.2815 6.71864C27.008 6.44515 26.6371 6.2915 26.2503 6.2915H21.8753" stroke="#8300EB" stroke-width="2" stroke-linecap="round" stroke-linejoin="round"/>
<path d="M13.125 19.4167L16.0417 22.3333L21.875 16.5M21.875 4.83333C21.875 4.44656 21.7214 4.07563 21.4479 3.80214C21.1744 3.52865 20.8034 3.375 20.4167 3.375H14.5833C14.1966 3.375 13.8256 3.52865 13.5521 3.80214C13.2786 4.07563 13.125 4.44656 13.125 4.83333V9.20833H21.875V4.83333Z" stroke="#8300EB" stroke-width="2" stroke-linecap="round" stroke-linejoin="round"/>
</svg>
