<svg width="35" height="35" viewBox="0 0 35 35" fill="none" xmlns="http://www.w3.org/2000/svg">
<path d="M29.1663 8.75C29.1663 6.32917 23.9455 4.375 17.4997 4.375C11.0538 4.375 5.83301 6.32917 5.83301 8.75V17.5V26.25C5.83301 28.6708 11.0538 30.625 17.4997 30.625C23.9455 30.625 29.1663 28.6708 29.1663 26.25V17.5V8.75Z" stroke="#8300EB" stroke-width="2.91667" stroke-linecap="round" stroke-linejoin="round"/>
<path d="M5.83301 17.5C5.83301 19.9208 11.0538 21.875 17.4997 21.875C23.9455 21.875 29.1663 19.9208 29.1663 17.5" stroke="#8300EB" stroke-width="2.91667" stroke-linecap="round" stroke-linejoin="round"/>
<path d="M29.1663 8.75C29.1663 11.1708 23.9455 13.125 17.4997 13.125C11.0538 13.125 5.83301 11.1708 5.83301 8.75" stroke="#8300EB" stroke-width="2.91667" stroke-linecap="round" stroke-linejoin="round"/>
</svg>
