<svg width="35" height="35" viewBox="0 0 35 35" fill="none" xmlns="http://www.w3.org/2000/svg">
<path d="M11.6667 29.1666H24.7917M29.1667 23.3333H5.83333C5.44656 23.3333 5.07563 23.1796 4.80214 22.9061C4.52865 22.6326 4.375 22.2617 4.375 21.8749V7.29159C4.375 6.90481 4.52865 6.53388 4.80214 6.26039C5.07563 5.9869 5.44656 5.83325 5.83333 5.83325H29.1667C29.5534 5.83325 29.9244 5.9869 30.1979 6.26039C30.4714 6.53388 30.625 6.90481 30.625 7.29159V21.8749C30.625 22.2617 30.4714 22.6326 30.1979 22.9061C29.9244 23.1796 29.5534 23.3333 29.1667 23.3333ZM20.4167 29.1666V23.3333H14.5833V29.1666H20.4167Z" stroke="#652D90" stroke-width="2" stroke-linecap="round" stroke-linejoin="round"/>
</svg>
