<svg width="35" height="35" viewBox="0 0 35 35" fill="none" xmlns="http://www.w3.org/2000/svg">
<path d="M30.625 27.7084H4.375M30.625 27.7084V7.29175M30.625 27.7084H24.7917C24.7917 26.1613 25.4062 24.6776 26.5002 23.5836C27.5942 22.4897 29.0779 21.8751 30.625 21.8751V27.7084ZM4.375 27.7084V7.29175M4.375 27.7084H10.2083C10.2083 26.1613 9.59375 24.6776 8.49979 23.5836C7.40583 22.4897 5.9221 21.8751 4.375 21.8751V27.7084ZM4.375 7.29175H30.625M4.375 7.29175H10.2083C10.2083 8.83884 9.59375 10.3226 8.49979 11.4165C7.40583 12.5105 5.9221 13.1251 4.375 13.1251V7.29175ZM30.625 7.29175H24.7917C24.7917 8.83884 25.4062 10.3226 26.5002 11.4165C27.5942 12.5105 29.0779 13.1251 30.625 13.1251V7.29175ZM17.5 14.5834C16.9231 14.5834 16.3592 14.7545 15.8796 15.075C15.3999 15.3954 15.0261 15.851 14.8054 16.3839C14.5846 16.9169 14.5268 17.5033 14.6394 18.0691C14.7519 18.6349 15.0297 19.1546 15.4376 19.5625C15.8455 19.9704 16.3652 20.2482 16.931 20.3607C17.4968 20.4732 18.0832 20.4155 18.6162 20.1947C19.1491 19.974 19.6046 19.6001 19.9251 19.1205C20.2456 18.6409 20.4167 18.0769 20.4167 17.5001C20.4167 16.7265 20.1094 15.9847 19.5624 15.4377C19.0154 14.8907 18.2735 14.5834 17.5 14.5834Z" stroke="#8300EB" stroke-width="2" stroke-linecap="round" stroke-linejoin="round"/>
</svg>
