<svg width="29" height="30" viewBox="0 0 29 30" fill="none" xmlns="http://www.w3.org/2000/svg">
<path d="M14.5672 14.1207C17.8791 14.1207 20.5641 16.8056 20.5641 20.1176V27.314H18.1653V20.1176C18.1653 18.2014 16.6674 16.635 14.7786 16.5256L14.5672 16.5195C12.6509 16.5195 11.0845 18.0174 10.9751 19.9062L10.969 20.1176V27.314H8.5702V20.1176C8.5702 16.8056 11.2551 14.1207 14.5672 14.1207ZM6.77111 17.7189C7.10556 17.7189 7.43088 17.758 7.74274 17.8318C7.54114 18.4313 7.41726 19.0646 7.38155 19.721L7.37081 20.1176L7.37165 20.2203C7.23596 20.1723 7.0928 20.1401 6.94437 20.1259L6.77111 20.1176C5.83595 20.1176 5.06744 20.8312 4.98026 21.7434L4.97202 21.9167V27.314H2.57324V21.9167C2.57324 19.5983 4.45269 17.7189 6.77111 17.7189ZM22.3632 17.7189C24.6816 17.7189 26.5611 19.5983 26.5611 21.9167V27.314H24.1623V21.9167C24.1623 20.9816 23.4488 20.2131 22.5365 20.1259L22.3632 20.1176C22.1531 20.1176 21.9513 20.1536 21.7639 20.2198L21.7635 20.1176C21.7635 19.3192 21.6335 18.5512 21.3935 17.8335C21.7034 17.758 22.0287 17.7189 22.3632 17.7189ZM6.77111 10.5225C8.42712 10.5225 9.76959 11.865 9.76959 13.521C9.76959 15.177 8.42712 16.5195 6.77111 16.5195C5.1151 16.5195 3.77263 15.177 3.77263 13.521C3.77263 11.865 5.1151 10.5225 6.77111 10.5225ZM22.3632 10.5225C24.0192 10.5225 25.3617 11.865 25.3617 13.521C25.3617 15.177 24.0192 16.5195 22.3632 16.5195C20.7072 16.5195 19.3647 15.177 19.3647 13.521C19.3647 11.865 20.7072 10.5225 22.3632 10.5225ZM6.77111 12.9213C6.43991 12.9213 6.17141 13.1898 6.17141 13.521C6.17141 13.8521 6.43991 14.1207 6.77111 14.1207C7.10231 14.1207 7.37081 13.8521 7.37081 13.521C7.37081 13.1898 7.10231 12.9213 6.77111 12.9213ZM22.3632 12.9213C22.032 12.9213 21.7635 13.1898 21.7635 13.521C21.7635 13.8521 22.032 14.1207 22.3632 14.1207C22.6943 14.1207 22.9629 13.8521 22.9629 13.521C22.9629 13.1898 22.6943 12.9213 22.3632 12.9213ZM14.5672 3.32617C17.2167 3.32617 19.3647 5.47411 19.3647 8.12374C19.3647 10.7734 17.2167 12.9213 14.5672 12.9213C11.9175 12.9213 9.76959 10.7734 9.76959 8.12374C9.76959 5.47411 11.9175 3.32617 14.5672 3.32617ZM14.5672 5.72495C13.2423 5.72495 12.1684 6.79892 12.1684 8.12374C12.1684 9.44855 13.2423 10.5225 14.5672 10.5225C15.892 10.5225 16.9659 9.44855 16.9659 8.12374C16.9659 6.79892 15.892 5.72495 14.5672 5.72495Z" fill="#8300EB"/>
</svg>
